<svg xmlns="http://www.w3.org/2000/svg" xmlns:xlink="http://www.w3.org/1999/xlink" contentStyleType="text/css" height="685px" preserveAspectRatio="none" style="width:1523px;height:685px;background:#FFFFFF;" version="1.1" viewBox="0 0 1523 685" width="1523px" zoomAndPan="magnify"><defs/><g><!--class \Symfony\Component\HttpFoundation\Request--><g id="elem_\Symfony\Component\HttpFoundation\Request"><rect codeLine="3" fill="#F1F1F1" height="85.2422" id="\Symfony\Component\HttpFoundation\Request" rx="2.5" ry="2.5" style="stroke:#181818;stroke-width:0.5;" width="322.2744" x="7" y="429.5"/><ellipse cx="22" cy="445.5" fill="#ADD1B2" rx="11" ry="11" style="stroke:#181818;stroke-width:1.0;"/><path d="M24.7656,441.375 Q24.9219,441.1563 25.1094,441.0469 Q25.2969,440.9375 25.5156,440.9375 Q25.8906,440.9375 26.125,441.2031 Q26.3594,441.4531 26.3594,442.0625 L26.3594,443.5156 Q26.3594,444.125 26.125,444.3906 Q25.8906,444.6563 25.5156,444.6563 Q25.1719,444.6563 24.9688,444.4531 Q24.7656,444.2656 24.6563,443.75 Q24.6094,443.3906 24.4219,443.2031 Q24.0938,442.8281 23.4844,442.6094 Q22.875,442.3906 22.25,442.3906 Q21.4844,442.3906 20.8438,442.7188 Q20.2188,443.0469 19.7188,443.7969 Q19.2344,444.5469 19.2344,445.5781 L19.2344,446.6719 Q19.2344,447.9063 20.125,448.7344 Q21.0156,449.5469 22.6094,449.5469 Q23.5469,449.5469 24.2031,449.2969 Q24.5938,449.1406 25.0156,448.7031 Q25.2813,448.4375 25.4219,448.3594 Q25.5781,448.2813 25.7813,448.2813 Q26.1094,448.2813 26.3594,448.5469 Q26.625,448.7969 26.625,449.1406 Q26.625,449.4844 26.2813,449.8906 Q25.7813,450.4688 24.9844,450.7969 Q23.9063,451.25 22.6094,451.25 Q21.0938,451.25 19.8906,450.625 Q18.9063,450.125 18.2188,449.0625 Q17.5313,447.9844 17.5313,446.7031 L17.5313,445.5469 Q17.5313,444.2188 18.1406,443.0781 Q18.7656,441.9219 19.8594,441.3125 Q20.9531,440.6875 22.1875,440.6875 Q22.9219,440.6875 23.5625,440.8594 Q24.2188,441.0156 24.7656,441.375 Z " fill="#000000"/><text fill="#000000" font-family="sans-serif" font-size="14" lengthAdjust="spacing" textLength="290.2744" x="36" y="451.2969">\Symfony\Component\HttpFoundation\Request</text><line style="stroke:#181818;stroke-width:0.5;" x1="8" x2="328.2744" y1="461.5" y2="461.5"/><line style="stroke:#181818;stroke-width:0.5;" x1="8" x2="328.2744" y1="469.5" y2="469.5"/><ellipse cx="18" cy="484.3105" fill="#84BE84" rx="3" ry="3" style="stroke:#038048;stroke-width:1.0;"/><text fill="#000000" font-family="sans-serif" font-size="14" lengthAdjust="spacing" textLength="128.3652" x="27" y="488.6074">createFromGlobals()</text><ellipse cx="18" cy="502.9316" fill="#84BE84" rx="3" ry="3" style="stroke:#038048;stroke-width:1.0;"/><text fill="#000000" font-family="sans-serif" font-size="14" lengthAdjust="spacing" textLength="80.9375" x="27" y="507.2285">getPathInfo()</text></g><!--class HttpKernelInterface--><g id="elem_HttpKernelInterface"><rect codeLine="8" fill="#F1F1F1" height="66.6211" id="HttpKernelInterface" rx="2.5" ry="2.5" style="stroke:#181818;stroke-width:0.5;" width="1075.002" x="262.5" y="7"/><ellipse cx="735.4409" cy="23" fill="#B4A7E5" rx="11" ry="11" style="stroke:#181818;stroke-width:1.0;"/><path d="M736.394,19.6406 L736.394,26.2969 L738.1128,26.2969 Q738.7222,26.2969 738.9878,26.5313 Q739.2534,26.7656 739.2534,27.1563 Q739.2534,27.5313 738.9878,27.7656 Q738.7222,28 738.1128,28 L732.9722,28 Q732.3628,28 732.0972,27.7656 Q731.8315,27.5313 731.8315,27.1406 Q731.8315,26.7656 732.0972,26.5313 Q732.3628,26.2969 732.9722,26.2969 L734.6909,26.2969 L734.6909,19.6406 L732.9722,19.6406 Q732.3628,19.6406 732.0972,19.4063 Q731.8315,19.1719 731.8315,18.7813 Q731.8315,18.4063 732.0972,18.1719 Q732.3628,17.9375 732.9722,17.9375 L738.1128,17.9375 Q738.7222,17.9375 738.9878,18.1719 Q739.2534,18.4063 739.2534,18.7813 Q739.2534,19.1719 738.9878,19.4063 Q738.7222,19.6406 738.1128,19.6406 L736.394,19.6406 Z " fill="#000000"/><text fill="#000000" font-family="sans-serif" font-size="14" font-style="italic" lengthAdjust="spacing" textLength="120.6201" x="755.9409" y="28.7969">HttpKernelInterface</text><line style="stroke:#181818;stroke-width:0.5;" x1="263.5" x2="1336.502" y1="39" y2="39"/><line style="stroke:#181818;stroke-width:0.5;" x1="263.5" x2="1336.502" y1="47" y2="47"/><ellipse cx="273.5" cy="61.8105" fill="#84BE84" rx="3" ry="3" style="stroke:#038048;stroke-width:1.0;"/><text fill="#000000" font-family="sans-serif" font-size="14" lengthAdjust="spacing" textLength="1049.002" x="282.5" y="66.1074">handle(\Symfony\Component\HttpFoundation\Request $request, int $type = self::MAIN_REQUEST, bool $catch = true): \Symfony\Component\HttpFoundation\Response;</text></g><!--class Application--><g id="elem_Application"><rect codeLine="12" fill="#F1F1F1" height="196.9688" id="Application" rx="2.5" ry="2.5" style="stroke:#181818;stroke-width:0.5;" width="415.8809" x="592" y="135"/><ellipse cx="761.4458" cy="151" fill="#ADD1B2" rx="11" ry="11" style="stroke:#181818;stroke-width:1.0;"/><path d="M764.2114,146.875 Q764.3677,146.6563 764.5552,146.5469 Q764.7427,146.4375 764.9614,146.4375 Q765.3364,146.4375 765.5708,146.7031 Q765.8052,146.9531 765.8052,147.5625 L765.8052,149.0156 Q765.8052,149.625 765.5708,149.8906 Q765.3364,150.1563 764.9614,150.1563 Q764.6177,150.1563 764.4146,149.9531 Q764.2114,149.7656 764.1021,149.25 Q764.0552,148.8906 763.8677,148.7031 Q763.5396,148.3281 762.9302,148.1094 Q762.3208,147.8906 761.6958,147.8906 Q760.9302,147.8906 760.2896,148.2188 Q759.6646,148.5469 759.1646,149.2969 Q758.6802,150.0469 758.6802,151.0781 L758.6802,152.1719 Q758.6802,153.4063 759.5708,154.2344 Q760.4614,155.0469 762.0552,155.0469 Q762.9927,155.0469 763.6489,154.7969 Q764.0396,154.6406 764.4614,154.2031 Q764.7271,153.9375 764.8677,153.8594 Q765.0239,153.7813 765.2271,153.7813 Q765.5552,153.7813 765.8052,154.0469 Q766.0708,154.2969 766.0708,154.6406 Q766.0708,154.9844 765.7271,155.3906 Q765.2271,155.9688 764.4302,156.2969 Q763.3521,156.75 762.0552,156.75 Q760.5396,156.75 759.3364,156.125 Q758.3521,155.625 757.6646,154.5625 Q756.9771,153.4844 756.9771,152.2031 L756.9771,151.0469 Q756.9771,149.7188 757.5864,148.5781 Q758.2114,147.4219 759.3052,146.8125 Q760.3989,146.1875 761.6333,146.1875 Q762.3677,146.1875 763.0083,146.3594 Q763.6646,146.5156 764.2114,146.875 Z " fill="#000000"/><text fill="#000000" font-family="sans-serif" font-size="14" lengthAdjust="spacing" textLength="68.4893" x="781.9458" y="156.7969">Application</text><line style="stroke:#181818;stroke-width:0.5;" x1="593" x2="1006.8809" y1="167" y2="167"/><rect fill="none" height="6" style="stroke:#C82930;stroke-width:1.0;" width="6" x="600" y="178.8105"/><text fill="#000000" font-family="sans-serif" font-size="14" lengthAdjust="spacing" textLength="389.8809" x="612" y="186.1074">\Symfony\Component\Routing\RequestContext requestContext</text><rect fill="none" height="6" style="stroke:#C82930;stroke-width:1.0;" width="6" x="600" y="197.4316"/><text fill="#000000" font-family="sans-serif" font-size="14" lengthAdjust="spacing" textLength="386.7637" x="612" y="204.7285">\Symfony\Component\Routing\RouteCollection routeCollection</text><rect fill="none" height="6" style="stroke:#C82930;stroke-width:1.0;" width="6" x="600" y="216.0527"/><text fill="#000000" font-family="sans-serif" font-size="14" lengthAdjust="spacing" textLength="147.8818" x="612" y="223.3496">\Monolog\Logger logger</text><rect fill="none" height="6" style="stroke:#C82930;stroke-width:1.0;" width="6" x="600" y="234.6738"/><text fill="#000000" font-family="sans-serif" font-size="14" lengthAdjust="spacing" textLength="259.9365" x="612" y="241.9707">\App\Exception\Handler exceptionHandler</text><line style="stroke:#181818;stroke-width:0.5;" x1="593" x2="1006.8809" y1="249.4844" y2="249.4844"/><ellipse cx="603" cy="264.2949" fill="#84BE84" rx="3" ry="3" style="stroke:#038048;stroke-width:1.0;"/><text fill="#000000" font-family="sans-serif" font-size="14" lengthAdjust="spacing" textLength="81.6963" x="612" y="268.5918">__construct()</text><ellipse cx="603" cy="282.916" fill="#84BE84" rx="3" ry="3" style="stroke:#038048;stroke-width:1.0;"/><text fill="#000000" font-family="sans-serif" font-size="14" lengthAdjust="spacing" textLength="80.1514" x="612" y="287.2129">loadRoutes()</text><ellipse cx="603" cy="301.5371" fill="#84BE84" rx="3" ry="3" style="stroke:#038048;stroke-width:1.0;"/><text fill="#000000" font-family="sans-serif" font-size="14" lengthAdjust="spacing" textLength="235.792" x="612" y="305.834">initException\App\Exception\Handler()</text><ellipse cx="603" cy="320.1582" fill="#84BE84" rx="3" ry="3" style="stroke:#038048;stroke-width:1.0;"/><text fill="#000000" font-family="sans-serif" font-size="14" lengthAdjust="spacing" textLength="341.6396" x="612" y="324.4551">handle(\Symfony\Component\HttpFoundation\Request)</text></g><!--class \App\Exception\Handler--><g id="elem_\App\Exception\Handler"><rect codeLine="23" fill="#F1F1F1" height="122.4844" id="\App\Exception\Handler" rx="2.5" ry="2.5" style="stroke:#181818;stroke-width:0.5;" width="204.2129" x="364" y="411"/><ellipse cx="390.3058" cy="427" fill="#ADD1B2" rx="11" ry="11" style="stroke:#181818;stroke-width:1.0;"/><path d="M393.0714,422.875 Q393.2277,422.6563 393.4152,422.5469 Q393.6027,422.4375 393.8214,422.4375 Q394.1964,422.4375 394.4308,422.7031 Q394.6652,422.9531 394.6652,423.5625 L394.6652,425.0156 Q394.6652,425.625 394.4308,425.8906 Q394.1964,426.1563 393.8214,426.1563 Q393.4777,426.1563 393.2746,425.9531 Q393.0714,425.7656 392.9621,425.25 Q392.9152,424.8906 392.7277,424.7031 Q392.3996,424.3281 391.7902,424.1094 Q391.1808,423.8906 390.5558,423.8906 Q389.7902,423.8906 389.1496,424.2188 Q388.5246,424.5469 388.0246,425.2969 Q387.5402,426.0469 387.5402,427.0781 L387.5402,428.1719 Q387.5402,429.4063 388.4308,430.2344 Q389.3214,431.0469 390.9152,431.0469 Q391.8527,431.0469 392.5089,430.7969 Q392.8996,430.6406 393.3214,430.2031 Q393.5871,429.9375 393.7277,429.8594 Q393.8839,429.7813 394.0871,429.7813 Q394.4152,429.7813 394.6652,430.0469 Q394.9308,430.2969 394.9308,430.6406 Q394.9308,430.9844 394.5871,431.3906 Q394.0871,431.9688 393.2902,432.2969 Q392.2121,432.75 390.9152,432.75 Q389.3996,432.75 388.1964,432.125 Q387.2121,431.625 386.5246,430.5625 Q385.8371,429.4844 385.8371,428.2031 L385.8371,427.0469 Q385.8371,425.7188 386.4464,424.5781 Q387.0714,423.4219 388.1652,422.8125 Q389.2589,422.1875 390.4933,422.1875 Q391.2277,422.1875 391.8683,422.3594 Q392.5246,422.5156 393.0714,422.875 Z " fill="#000000"/><text fill="#000000" font-family="sans-serif" font-size="14" lengthAdjust="spacing" textLength="147.0889" x="406.8182" y="432.7969">\App\Exception\Handler</text><line style="stroke:#181818;stroke-width:0.5;" x1="365" x2="567.2129" y1="443" y2="443"/><rect fill="none" height="6" style="stroke:#C82930;stroke-width:1.0;" width="6" x="372" y="454.8105"/><text fill="#000000" font-family="sans-serif" font-size="14" lengthAdjust="spacing" textLength="147.8818" x="384" y="462.1074">\Monolog\Logger logger</text><line style="stroke:#181818;stroke-width:0.5;" x1="365" x2="567.2129" y1="469.6211" y2="469.6211"/><ellipse cx="375" cy="484.4316" fill="#84BE84" rx="3" ry="3" style="stroke:#038048;stroke-width:1.0;"/><text fill="#000000" font-family="sans-serif" font-size="14" lengthAdjust="spacing" textLength="132.2959" x="384" y="488.7285">init(\Monolog\Logger)</text><ellipse cx="375" cy="503.0527" fill="#84BE84" rx="3" ry="3" style="stroke:#038048;stroke-width:1.0;"/><text fill="#000000" font-family="sans-serif" font-size="14" lengthAdjust="spacing" textLength="113.6338" x="384" y="507.3496">handleShutdown()</text><ellipse cx="375" cy="521.6738" fill="#84BE84" rx="3" ry="3" style="stroke:#038048;stroke-width:1.0;"/><text fill="#000000" font-family="sans-serif" font-size="14" lengthAdjust="spacing" textLength="178.2129" x="384" y="525.9707">handleException(Throwable)</text></g><!--class YamlRouteLoader--><g id="elem_YamlRouteLoader"><rect codeLine="30" fill="#F1F1F1" height="66.6211" id="YamlRouteLoader" rx="2.5" ry="2.5" style="stroke:#181818;stroke-width:0.5;" width="393.2949" x="603.5" y="438.5"/><ellipse cx="739.4736" cy="454.5" fill="#ADD1B2" rx="11" ry="11" style="stroke:#181818;stroke-width:1.0;"/><path d="M742.2393,450.375 Q742.3955,450.1563 742.583,450.0469 Q742.7705,449.9375 742.9893,449.9375 Q743.3643,449.9375 743.5986,450.2031 Q743.833,450.4531 743.833,451.0625 L743.833,452.5156 Q743.833,453.125 743.5986,453.3906 Q743.3643,453.6563 742.9893,453.6563 Q742.6455,453.6563 742.4424,453.4531 Q742.2393,453.2656 742.1299,452.75 Q742.083,452.3906 741.8955,452.2031 Q741.5674,451.8281 740.958,451.6094 Q740.3486,451.3906 739.7236,451.3906 Q738.958,451.3906 738.3174,451.7188 Q737.6924,452.0469 737.1924,452.7969 Q736.708,453.5469 736.708,454.5781 L736.708,455.6719 Q736.708,456.9063 737.5986,457.7344 Q738.4893,458.5469 740.083,458.5469 Q741.0205,458.5469 741.6768,458.2969 Q742.0674,458.1406 742.4893,457.7031 Q742.7549,457.4375 742.8955,457.3594 Q743.0518,457.2813 743.2549,457.2813 Q743.583,457.2813 743.833,457.5469 Q744.0986,457.7969 744.0986,458.1406 Q744.0986,458.4844 743.7549,458.8906 Q743.2549,459.4688 742.458,459.7969 Q741.3799,460.25 740.083,460.25 Q738.5674,460.25 737.3643,459.625 Q736.3799,459.125 735.6924,458.0625 Q735.0049,456.9844 735.0049,455.7031 L735.0049,454.5469 Q735.0049,453.2188 735.6143,452.0781 Q736.2393,450.9219 737.333,450.3125 Q738.4268,449.6875 739.6611,449.6875 Q740.3955,449.6875 741.0361,449.8594 Q741.6924,450.0156 742.2393,450.375 Z " fill="#000000"/><text fill="#000000" font-family="sans-serif" font-size="14" lengthAdjust="spacing" textLength="112.8477" x="759.9736" y="460.2969">YamlRouteLoader</text><line style="stroke:#181818;stroke-width:0.5;" x1="604.5" x2="995.7949" y1="470.5" y2="470.5"/><line style="stroke:#181818;stroke-width:0.5;" x1="604.5" x2="995.7949" y1="478.5" y2="478.5"/><ellipse cx="614.5" cy="493.3105" fill="#84BE84" rx="3" ry="3" style="stroke:#038048;stroke-width:1.0;"/><text fill="#000000" font-family="sans-serif" font-size="14" lengthAdjust="spacing" textLength="367.2949" x="623.5" y="497.6074">load(string): \Symfony\Component\Routing\RouteCollection</text></g><!--class ExportController--><g id="elem_ExportController"><rect codeLine="34" fill="#F1F1F1" height="66.6211" id="ExportController" rx="2.5" ry="2.5" style="stroke:#181818;stroke-width:0.5;" width="400.3154" x="1032" y="438.5"/><ellipse cx="1177.332" cy="454.5" fill="#ADD1B2" rx="11" ry="11" style="stroke:#181818;stroke-width:1.0;"/><path d="M1180.0977,450.375 Q1180.2539,450.1563 1180.4414,450.0469 Q1180.6289,449.9375 1180.8477,449.9375 Q1181.2227,449.9375 1181.457,450.2031 Q1181.6914,450.4531 1181.6914,451.0625 L1181.6914,452.5156 Q1181.6914,453.125 1181.457,453.3906 Q1181.2227,453.6563 1180.8477,453.6563 Q1180.5039,453.6563 1180.3008,453.4531 Q1180.0977,453.2656 1179.9883,452.75 Q1179.9414,452.3906 1179.7539,452.2031 Q1179.4258,451.8281 1178.8164,451.6094 Q1178.207,451.3906 1177.582,451.3906 Q1176.8164,451.3906 1176.1758,451.7188 Q1175.5508,452.0469 1175.0508,452.7969 Q1174.5664,453.5469 1174.5664,454.5781 L1174.5664,455.6719 Q1174.5664,456.9063 1175.457,457.7344 Q1176.3477,458.5469 1177.9414,458.5469 Q1178.8789,458.5469 1179.5352,458.2969 Q1179.9258,458.1406 1180.3477,457.7031 Q1180.6133,457.4375 1180.7539,457.3594 Q1180.9102,457.2813 1181.1133,457.2813 Q1181.4414,457.2813 1181.6914,457.5469 Q1181.957,457.7969 1181.957,458.1406 Q1181.957,458.4844 1181.6133,458.8906 Q1181.1133,459.4688 1180.3164,459.7969 Q1179.2383,460.25 1177.9414,460.25 Q1176.4258,460.25 1175.2227,459.625 Q1174.2383,459.125 1173.5508,458.0625 Q1172.8633,456.9844 1172.8633,455.7031 L1172.8633,454.5469 Q1172.8633,453.2188 1173.4727,452.0781 Q1174.0977,450.9219 1175.1914,450.3125 Q1176.2852,449.6875 1177.5195,449.6875 Q1178.2539,449.6875 1178.8945,449.8594 Q1179.5508,450.0156 1180.0977,450.375 Z " fill="#000000"/><text fill="#000000" font-family="sans-serif" font-size="14" lengthAdjust="spacing" textLength="101.1514" x="1197.832" y="460.2969">ExportController</text><line style="stroke:#181818;stroke-width:0.5;" x1="1033" x2="1431.3154" y1="470.5" y2="470.5"/><line style="stroke:#181818;stroke-width:0.5;" x1="1033" x2="1431.3154" y1="478.5" y2="478.5"/><ellipse cx="1043" cy="493.3105" fill="#84BE84" rx="3" ry="3" style="stroke:#038048;stroke-width:1.0;"/><text fill="#000000" font-family="sans-serif" font-size="14" lengthAdjust="spacing" textLength="374.3154" x="1052" y="497.6074">__invoke(): \Symfony\Component\HttpFoundation\Response</text></g><!--class \Symfony\Component\HttpFoundation\Response--><g id="elem_\Symfony\Component\HttpFoundation\Response"><rect codeLine="38" fill="#F1F1F1" height="66.6211" id="\Symfony\Component\HttpFoundation\Response" rx="2.5" ry="2.5" style="stroke:#181818;stroke-width:0.5;" width="333.1709" x="817.5" y="612"/><ellipse cx="832.5" cy="628" fill="#ADD1B2" rx="11" ry="11" style="stroke:#181818;stroke-width:1.0;"/><path d="M835.2656,623.875 Q835.4219,623.6563 835.6094,623.5469 Q835.7969,623.4375 836.0156,623.4375 Q836.3906,623.4375 836.625,623.7031 Q836.8594,623.9531 836.8594,624.5625 L836.8594,626.0156 Q836.8594,626.625 836.625,626.8906 Q836.3906,627.1563 836.0156,627.1563 Q835.6719,627.1563 835.4688,626.9531 Q835.2656,626.7656 835.1563,626.25 Q835.1094,625.8906 834.9219,625.7031 Q834.5938,625.3281 833.9844,625.1094 Q833.375,624.8906 832.75,624.8906 Q831.9844,624.8906 831.3438,625.2188 Q830.7188,625.5469 830.2188,626.2969 Q829.7344,627.0469 829.7344,628.0781 L829.7344,629.1719 Q829.7344,630.4063 830.625,631.2344 Q831.5156,632.0469 833.1094,632.0469 Q834.0469,632.0469 834.7031,631.7969 Q835.0938,631.6406 835.5156,631.2031 Q835.7813,630.9375 835.9219,630.8594 Q836.0781,630.7813 836.2813,630.7813 Q836.6094,630.7813 836.8594,631.0469 Q837.125,631.2969 837.125,631.6406 Q837.125,631.9844 836.7813,632.3906 Q836.2813,632.9688 835.4844,633.2969 Q834.4063,633.75 833.1094,633.75 Q831.5938,633.75 830.3906,633.125 Q829.4063,632.625 828.7188,631.5625 Q828.0313,630.4844 828.0313,629.2031 L828.0313,628.0469 Q828.0313,626.7188 828.6406,625.5781 Q829.2656,624.4219 830.3594,623.8125 Q831.4531,623.1875 832.6875,623.1875 Q833.4219,623.1875 834.0625,623.3594 Q834.7188,623.5156 835.2656,623.875 Z " fill="#000000"/><text fill="#000000" font-family="sans-serif" font-size="14" lengthAdjust="spacing" textLength="301.1709" x="846.5" y="633.7969">\Symfony\Component\HttpFoundation\Response</text><line style="stroke:#181818;stroke-width:0.5;" x1="818.5" x2="1149.6709" y1="644" y2="644"/><line style="stroke:#181818;stroke-width:0.5;" x1="818.5" x2="1149.6709" y1="652" y2="652"/><ellipse cx="828.5" cy="666.8105" fill="#84BE84" rx="3" ry="3" style="stroke:#038048;stroke-width:1.0;"/><text fill="#000000" font-family="sans-serif" font-size="14" lengthAdjust="spacing" textLength="39.6826" x="837.5" y="671.1074">send()</text></g><!--link HttpKernelInterface to Application--><g id="link_HttpKernelInterface_Application"><path codeLine="42" d="M800,74.33 C800,91.29 800,106.97 800,128.8 " fill="none" id="HttpKernelInterface-to-Application" style="stroke:#181818;stroke-width:1.0;"/><polygon fill="#181818" points="800,134.8,804,125.8,800,129.8,796,125.8,800,134.8" style="stroke:#181818;stroke-width:1.0;"/></g><!--link Application to \Symfony\Component\HttpFoundation\Request--><g id="link_Application_\Symfony\Component\HttpFoundation\Request"><path codeLine="43" d="M591.75,312.43 C487.44,351.46 370.9694,395.0471 284.7094,427.3271 " fill="none" id="Application-to-\Symfony\Component\HttpFoundation\Request" style="stroke:#181818;stroke-width:1.0;"/><polygon fill="#181818" points="279.09,429.43,288.9211,430.022,283.7728,427.6776,286.1172,422.5294,279.09,429.43" style="stroke:#181818;stroke-width:1.0;"/><text fill="#000000" font-family="sans-serif" font-size="13" lengthAdjust="spacing" textLength="27.46" x="448" y="377.0283">uses</text></g><!--link Application to \App\Exception\Handler--><g id="link_Application_\App\Exception\Handler"><path codeLine="44" d="M662.22,332.06 C624.49,358.78 589.5861,383.4818 555.7761,407.4318 " fill="none" id="Application-to-\App\Exception\Handler" style="stroke:#181818;stroke-width:1.0;"/><polygon fill="#181818" points="550.88,410.9,560.5362,408.9617,554.9601,408.0098,555.9119,402.4336,550.88,410.9" style="stroke:#181818;stroke-width:1.0;"/><text fill="#000000" font-family="sans-serif" font-size="13" lengthAdjust="spacing" textLength="53.479" x="615" y="377.0283">manages</text></g><!--link Application to YamlRouteLoader--><g id="link_Application_YamlRouteLoader"><path codeLine="45" d="M800,332.06 C800,369.98 800,404.82 800,432.34 " fill="none" id="Application-to-YamlRouteLoader" style="stroke:#181818;stroke-width:1.0;"/><polygon fill="#181818" points="800,438.34,804,429.34,800,433.34,796,429.34,800,438.34" style="stroke:#181818;stroke-width:1.0;"/><text fill="#000000" font-family="sans-serif" font-size="13" lengthAdjust="spacing" textLength="27.46" x="801" y="377.0283">uses</text></g><!--link Application to ExportController--><g id="link_Application_ExportController"><path codeLine="46" d="M978.21,332.06 C1047.58,370.04 1117.067,408.0788 1167.337,435.5988 " fill="none" id="Application-to-ExportController" style="stroke:#181818;stroke-width:1.0;"/><polygon fill="#181818" points="1172.6,438.48,1166.6263,430.6496,1168.2142,436.079,1162.7848,437.6669,1172.6,438.48" style="stroke:#181818;stroke-width:1.0;"/><text fill="#000000" font-family="sans-serif" font-size="13" lengthAdjust="spacing" textLength="50.5845" x="1068" y="377.0283">routes to</text></g><!--link Application to \Symfony\Component\HttpFoundation\Response--><g id="link_Application_\Symfony\Component\HttpFoundation\Response"><path codeLine="47" d="M1008.35,263.34 C1177.35,291.5 1396.06,340.46 1450,411 C1482.94,454.07 1483.58,490.43 1450,533 C1412.74,580.23 1274.791,608.8408 1156.641,625.5308 " fill="none" id="Application-to-\Symfony\Component\HttpFoundation\Response" style="stroke:#181818;stroke-width:1.0;"/><polygon fill="#181818" points="1150.7,626.37,1160.171,629.0718,1155.6508,625.6706,1159.052,621.1505,1150.7,626.37" style="stroke:#181818;stroke-width:1.0;"/><text fill="#000000" font-family="sans-serif" font-size="13" lengthAdjust="spacing" textLength="40.46" x="1475" y="477.5283">returns</text></g><!--link \App\Exception\Handler to \Symfony\Component\HttpFoundation\Response--><g id="link_\App\Exception\Handler_\Symfony\Component\HttpFoundation\Response"><path codeLine="48" d="M568.19,525.7 C574.17,528.28 580.13,530.74 586,533 C669.34,565.17 759.9436,590.9472 836.9936,610.4572 " fill="none" id="\App\Exception\Handler-to-\Symfony\Component\HttpFoundation\Response" style="stroke:#181818;stroke-width:1.0;"/><polygon fill="#181818" points="842.81,611.93,835.0672,605.8432,837.963,610.7027,833.1035,613.5984,842.81,611.93" style="stroke:#181818;stroke-width:1.0;"/><text fill="#000000" font-family="sans-serif" font-size="13" lengthAdjust="spacing" textLength="91.7617" x="727" y="578.0283">creates on error</text></g><!--SRC=[dLJ1Rjim3BtxAtZ8mS6QouuUDg08qZPOMsn9TnXWm51anZOgYwv4hmcA_VjasMdSrccJdMIHukFZ8sbxN-XA6562fB8YZPgNl5K8TQa-1u5Kmbg8bzjoJNeRJtTluYlcwe9gdGekICSBVAZHCZm509-aGS5uOQYyLBGIoeRZnfmX_n2Sp_MQdE5l41IQqQo5H6ZGlgFHgERFDW-L2vqg38ydC3BjnnauT1ZnjaBu2XRLEefkpkUtoMBsyzTiUNS6Ao858obOvku5cnh7qL6LMkUm-AMfe9NdlAfK8RtRivuCe2oeva9dEvvJSdLk6CoBwqUnxiGfAONIvp8lxpxwXZGfok9hoZ8qeFpXFOvbFDj8h7mPLrvO0xYpT8P6z2IHhaAdYEIsSuf4wfDtdInqmNkeGU3suQdj6-z5FS3twTqgFRFmbRl7P9dNdDAZxhDxpX7UvOOUnKfXZyPlKIfV-hNJeCllzGYTGAufmpDpe6DxsDcc8kFRRXflXviaXVv3znYUD8azpOwEQVDPr6cxYaCBE9bywuzsq1_pndVyKaPGMxHl0OPR744fjCW60butum3k6t6ZTbKiCFrN5Prc3WQvDje61vYVZDV-AIquBcWCcNy0]--></g></svg>