<svg xmlns="http://www.w3.org/2000/svg" xmlns:xlink="http://www.w3.org/1999/xlink" contentStyleType="text/css" height="557px" preserveAspectRatio="none" style="width:924px;height:557px;background:#FFFFFF;" version="1.1" viewBox="0 0 924 557" width="924px" zoomAndPan="magnify"><defs/><g><!--class Request--><g id="elem_Request"><rect codeLine="3" fill="#F1F1F1" height="85.2422" id="Request" rx="2.5" ry="2.5" style="stroke:#181818;stroke-width:0.5;" width="154.3652" x="7" y="301.5"/><ellipse cx="53.8604" cy="317.5" fill="#ADD1B2" rx="11" ry="11" style="stroke:#181818;stroke-width:1.0;"/><path d="M56.626,313.375 Q56.7822,313.1563 56.9697,313.0469 Q57.1572,312.9375 57.376,312.9375 Q57.751,312.9375 57.9854,313.2031 Q58.2197,313.4531 58.2197,314.0625 L58.2197,315.5156 Q58.2197,316.125 57.9854,316.3906 Q57.751,316.6563 57.376,316.6563 Q57.0322,316.6563 56.8291,316.4531 Q56.626,316.2656 56.5166,315.75 Q56.4697,315.3906 56.2822,315.2031 Q55.9541,314.8281 55.3447,314.6094 Q54.7354,314.3906 54.1104,314.3906 Q53.3447,314.3906 52.7041,314.7188 Q52.0791,315.0469 51.5791,315.7969 Q51.0947,316.5469 51.0947,317.5781 L51.0947,318.6719 Q51.0947,319.9063 51.9854,320.7344 Q52.876,321.5469 54.4697,321.5469 Q55.4072,321.5469 56.0635,321.2969 Q56.4541,321.1406 56.876,320.7031 Q57.1416,320.4375 57.2822,320.3594 Q57.4385,320.2813 57.6416,320.2813 Q57.9697,320.2813 58.2197,320.5469 Q58.4854,320.7969 58.4854,321.1406 Q58.4854,321.4844 58.1416,321.8906 Q57.6416,322.4688 56.8447,322.7969 Q55.7666,323.25 54.4697,323.25 Q52.9541,323.25 51.751,322.625 Q50.7666,322.125 50.0791,321.0625 Q49.3916,319.9844 49.3916,318.7031 L49.3916,317.5469 Q49.3916,316.2188 50.001,315.0781 Q50.626,313.9219 51.7197,313.3125 Q52.8135,312.6875 54.0479,312.6875 Q54.7822,312.6875 55.4229,312.8594 Q56.0791,313.0156 56.626,313.375 Z " fill="#000000"/><text fill="#000000" font-family="sans-serif" font-size="14" lengthAdjust="spacing" textLength="52.1445" x="74.3604" y="323.2969">Request</text><line style="stroke:#181818;stroke-width:0.5;" x1="8" x2="160.3652" y1="333.5" y2="333.5"/><line style="stroke:#181818;stroke-width:0.5;" x1="8" x2="160.3652" y1="341.5" y2="341.5"/><ellipse cx="18" cy="356.3105" fill="#84BE84" rx="3" ry="3" style="stroke:#038048;stroke-width:1.0;"/><text fill="#000000" font-family="sans-serif" font-size="14" lengthAdjust="spacing" textLength="128.3652" x="27" y="360.6074">createFromGlobals()</text><ellipse cx="18" cy="374.9316" fill="#84BE84" rx="3" ry="3" style="stroke:#038048;stroke-width:1.0;"/><text fill="#000000" font-family="sans-serif" font-size="14" lengthAdjust="spacing" textLength="80.9375" x="27" y="379.2285">getPathInfo()</text></g><!--class Application--><g id="elem_Application"><rect codeLine="8" fill="#F1F1F1" height="196.9688" id="Application" rx="2.5" ry="2.5" style="stroke:#181818;stroke-width:0.5;" width="225.2266" x="424.5" y="7"/><ellipse cx="498.6187" cy="23" fill="#ADD1B2" rx="11" ry="11" style="stroke:#181818;stroke-width:1.0;"/><path d="M501.3843,18.875 Q501.5405,18.6563 501.728,18.5469 Q501.9155,18.4375 502.1343,18.4375 Q502.5093,18.4375 502.7437,18.7031 Q502.978,18.9531 502.978,19.5625 L502.978,21.0156 Q502.978,21.625 502.7437,21.8906 Q502.5093,22.1563 502.1343,22.1563 Q501.7905,22.1563 501.5874,21.9531 Q501.3843,21.7656 501.2749,21.25 Q501.228,20.8906 501.0405,20.7031 Q500.7124,20.3281 500.103,20.1094 Q499.4937,19.8906 498.8687,19.8906 Q498.103,19.8906 497.4624,20.2188 Q496.8374,20.5469 496.3374,21.2969 Q495.853,22.0469 495.853,23.0781 L495.853,24.1719 Q495.853,25.4063 496.7437,26.2344 Q497.6343,27.0469 499.228,27.0469 Q500.1655,27.0469 500.8218,26.7969 Q501.2124,26.6406 501.6343,26.2031 Q501.8999,25.9375 502.0405,25.8594 Q502.1968,25.7813 502.3999,25.7813 Q502.728,25.7813 502.978,26.0469 Q503.2437,26.2969 503.2437,26.6406 Q503.2437,26.9844 502.8999,27.3906 Q502.3999,27.9688 501.603,28.2969 Q500.5249,28.75 499.228,28.75 Q497.7124,28.75 496.5093,28.125 Q495.5249,27.625 494.8374,26.5625 Q494.1499,25.4844 494.1499,24.2031 L494.1499,23.0469 Q494.1499,21.7188 494.7593,20.5781 Q495.3843,19.4219 496.478,18.8125 Q497.5718,18.1875 498.8062,18.1875 Q499.5405,18.1875 500.1812,18.3594 Q500.8374,18.5156 501.3843,18.875 Z " fill="#000000"/><text fill="#000000" font-family="sans-serif" font-size="14" lengthAdjust="spacing" textLength="68.4893" x="519.1187" y="28.7969">Application</text><line style="stroke:#181818;stroke-width:0.5;" x1="425.5" x2="648.7266" y1="39" y2="39"/><rect fill="none" height="6" style="stroke:#C82930;stroke-width:1.0;" width="6" x="432.5" y="50.8105"/><text fill="#000000" font-family="sans-serif" font-size="14" lengthAdjust="spacing" textLength="199.2266" x="444.5" y="58.1074">RequestContext requestContext</text><rect fill="none" height="6" style="stroke:#C82930;stroke-width:1.0;" width="6" x="432.5" y="69.4316"/><text fill="#000000" font-family="sans-serif" font-size="14" lengthAdjust="spacing" textLength="196.1094" x="444.5" y="76.7285">RouteCollection routeCollection</text><rect fill="none" height="6" style="stroke:#C82930;stroke-width:1.0;" width="6" x="432.5" y="88.0527"/><text fill="#000000" font-family="sans-serif" font-size="14" lengthAdjust="spacing" textLength="86.3994" x="444.5" y="95.3496">Logger logger</text><rect fill="none" height="6" style="stroke:#C82930;stroke-width:1.0;" width="6" x="432.5" y="106.6738"/><text fill="#000000" font-family="sans-serif" font-size="14" lengthAdjust="spacing" textLength="161.875" x="444.5" y="113.9707">Handler exceptionHandler</text><line style="stroke:#181818;stroke-width:0.5;" x1="425.5" x2="648.7266" y1="121.4844" y2="121.4844"/><ellipse cx="435.5" cy="136.2949" fill="#84BE84" rx="3" ry="3" style="stroke:#038048;stroke-width:1.0;"/><text fill="#000000" font-family="sans-serif" font-size="14" lengthAdjust="spacing" textLength="81.6963" x="444.5" y="140.5918">__construct()</text><ellipse cx="435.5" cy="154.916" fill="#84BE84" rx="3" ry="3" style="stroke:#038048;stroke-width:1.0;"/><text fill="#000000" font-family="sans-serif" font-size="14" lengthAdjust="spacing" textLength="80.1514" x="444.5" y="159.2129">loadRoutes()</text><ellipse cx="435.5" cy="173.5371" fill="#84BE84" rx="3" ry="3" style="stroke:#038048;stroke-width:1.0;"/><text fill="#000000" font-family="sans-serif" font-size="14" lengthAdjust="spacing" textLength="137.7305" x="444.5" y="177.834">initExceptionHandler()</text><ellipse cx="435.5" cy="192.1582" fill="#84BE84" rx="3" ry="3" style="stroke:#038048;stroke-width:1.0;"/><text fill="#000000" font-family="sans-serif" font-size="14" lengthAdjust="spacing" textLength="103.5098" x="444.5" y="196.4551">handle(Request)</text></g><!--class Handler--><g id="elem_Handler"><rect codeLine="19" fill="#F1F1F1" height="122.4844" id="Handler" rx="2.5" ry="2.5" style="stroke:#181818;stroke-width:0.5;" width="204.2129" x="196" y="283"/><ellipse cx="269.3428" cy="299" fill="#ADD1B2" rx="11" ry="11" style="stroke:#181818;stroke-width:1.0;"/><path d="M272.1084,294.875 Q272.2646,294.6563 272.4521,294.5469 Q272.6396,294.4375 272.8584,294.4375 Q273.2334,294.4375 273.4678,294.7031 Q273.7021,294.9531 273.7021,295.5625 L273.7021,297.0156 Q273.7021,297.625 273.4678,297.8906 Q273.2334,298.1563 272.8584,298.1563 Q272.5146,298.1563 272.3115,297.9531 Q272.1084,297.7656 271.999,297.25 Q271.9521,296.8906 271.7646,296.7031 Q271.4365,296.3281 270.8271,296.1094 Q270.2178,295.8906 269.5928,295.8906 Q268.8271,295.8906 268.1865,296.2188 Q267.5615,296.5469 267.0615,297.2969 Q266.5771,298.0469 266.5771,299.0781 L266.5771,300.1719 Q266.5771,301.4063 267.4678,302.2344 Q268.3584,303.0469 269.9521,303.0469 Q270.8896,303.0469 271.5459,302.7969 Q271.9365,302.6406 272.3584,302.2031 Q272.624,301.9375 272.7646,301.8594 Q272.9209,301.7813 273.124,301.7813 Q273.4521,301.7813 273.7021,302.0469 Q273.9678,302.2969 273.9678,302.6406 Q273.9678,302.9844 273.624,303.3906 Q273.124,303.9688 272.3271,304.2969 Q271.249,304.75 269.9521,304.75 Q268.4365,304.75 267.2334,304.125 Q266.249,303.625 265.5615,302.5625 Q264.874,301.4844 264.874,300.2031 L264.874,299.0469 Q264.874,297.7188 265.4834,296.5781 Q266.1084,295.4219 267.2021,294.8125 Q268.2959,294.1875 269.5303,294.1875 Q270.2646,294.1875 270.9053,294.3594 Q271.5615,294.5156 272.1084,294.875 Z " fill="#000000"/><text fill="#000000" font-family="sans-serif" font-size="14" lengthAdjust="spacing" textLength="49.0273" x="289.8428" y="304.7969">Handler</text><line style="stroke:#181818;stroke-width:0.5;" x1="197" x2="399.2129" y1="315" y2="315"/><rect fill="none" height="6" style="stroke:#C82930;stroke-width:1.0;" width="6" x="204" y="326.8105"/><text fill="#000000" font-family="sans-serif" font-size="14" lengthAdjust="spacing" textLength="86.3994" x="216" y="334.1074">Logger logger</text><line style="stroke:#181818;stroke-width:0.5;" x1="197" x2="399.2129" y1="341.6211" y2="341.6211"/><ellipse cx="207" cy="356.4316" fill="#84BE84" rx="3" ry="3" style="stroke:#038048;stroke-width:1.0;"/><text fill="#000000" font-family="sans-serif" font-size="14" lengthAdjust="spacing" textLength="70.8135" x="216" y="360.7285">init(Logger)</text><ellipse cx="207" cy="375.0527" fill="#84BE84" rx="3" ry="3" style="stroke:#038048;stroke-width:1.0;"/><text fill="#000000" font-family="sans-serif" font-size="14" lengthAdjust="spacing" textLength="113.6338" x="216" y="379.3496">handleShutdown()</text><ellipse cx="207" cy="393.6738" fill="#84BE84" rx="3" ry="3" style="stroke:#038048;stroke-width:1.0;"/><text fill="#000000" font-family="sans-serif" font-size="14" lengthAdjust="spacing" textLength="178.2129" x="216" y="397.9707">handleException(Throwable)</text></g><!--class YamlRouteLoader--><g id="elem_YamlRouteLoader"><rect codeLine="26" fill="#F1F1F1" height="66.6211" id="YamlRouteLoader" rx="2.5" ry="2.5" style="stroke:#181818;stroke-width:0.5;" width="202.6406" x="435.5" y="310.5"/><ellipse cx="476.5068" cy="326.5" fill="#ADD1B2" rx="11" ry="11" style="stroke:#181818;stroke-width:1.0;"/><path d="M479.2725,322.375 Q479.4287,322.1563 479.6162,322.0469 Q479.8037,321.9375 480.0225,321.9375 Q480.3975,321.9375 480.6318,322.2031 Q480.8662,322.4531 480.8662,323.0625 L480.8662,324.5156 Q480.8662,325.125 480.6318,325.3906 Q480.3975,325.6563 480.0225,325.6563 Q479.6787,325.6563 479.4756,325.4531 Q479.2725,325.2656 479.1631,324.75 Q479.1162,324.3906 478.9287,324.2031 Q478.6006,323.8281 477.9912,323.6094 Q477.3818,323.3906 476.7568,323.3906 Q475.9912,323.3906 475.3506,323.7188 Q474.7256,324.0469 474.2256,324.7969 Q473.7412,325.5469 473.7412,326.5781 L473.7412,327.6719 Q473.7412,328.9063 474.6318,329.7344 Q475.5225,330.5469 477.1162,330.5469 Q478.0537,330.5469 478.71,330.2969 Q479.1006,330.1406 479.5225,329.7031 Q479.7881,329.4375 479.9287,329.3594 Q480.085,329.2813 480.2881,329.2813 Q480.6162,329.2813 480.8662,329.5469 Q481.1318,329.7969 481.1318,330.1406 Q481.1318,330.4844 480.7881,330.8906 Q480.2881,331.4688 479.4912,331.7969 Q478.4131,332.25 477.1162,332.25 Q475.6006,332.25 474.3975,331.625 Q473.4131,331.125 472.7256,330.0625 Q472.0381,328.9844 472.0381,327.7031 L472.0381,326.5469 Q472.0381,325.2188 472.6475,324.0781 Q473.2725,322.9219 474.3662,322.3125 Q475.46,321.6875 476.6943,321.6875 Q477.4287,321.6875 478.0693,321.8594 Q478.7256,322.0156 479.2725,322.375 Z " fill="#000000"/><text fill="#000000" font-family="sans-serif" font-size="14" lengthAdjust="spacing" textLength="112.8477" x="496.2861" y="332.2969">YamlRouteLoader</text><line style="stroke:#181818;stroke-width:0.5;" x1="436.5" x2="637.1406" y1="342.5" y2="342.5"/><line style="stroke:#181818;stroke-width:0.5;" x1="436.5" x2="637.1406" y1="350.5" y2="350.5"/><ellipse cx="446.5" cy="365.3105" fill="#84BE84" rx="3" ry="3" style="stroke:#038048;stroke-width:1.0;"/><text fill="#000000" font-family="sans-serif" font-size="14" lengthAdjust="spacing" textLength="176.6406" x="455.5" y="369.6074">load(string): RouteCollection</text></g><!--class ExportController--><g id="elem_ExportController"><rect codeLine="30" fill="#F1F1F1" height="66.6211" id="ExportController" rx="2.5" ry="2.5" style="stroke:#181818;stroke-width:0.5;" width="162.1855" x="674" y="310.5"/><ellipse cx="702.0654" cy="326.5" fill="#ADD1B2" rx="11" ry="11" style="stroke:#181818;stroke-width:1.0;"/><path d="M704.831,322.375 Q704.9873,322.1563 705.1748,322.0469 Q705.3623,321.9375 705.581,321.9375 Q705.956,321.9375 706.1904,322.2031 Q706.4248,322.4531 706.4248,323.0625 L706.4248,324.5156 Q706.4248,325.125 706.1904,325.3906 Q705.956,325.6563 705.581,325.6563 Q705.2373,325.6563 705.0341,325.4531 Q704.831,325.2656 704.7216,324.75 Q704.6748,324.3906 704.4873,324.2031 Q704.1591,323.8281 703.5498,323.6094 Q702.9404,323.3906 702.3154,323.3906 Q701.5498,323.3906 700.9091,323.7188 Q700.2841,324.0469 699.7841,324.7969 Q699.2998,325.5469 699.2998,326.5781 L699.2998,327.6719 Q699.2998,328.9063 700.1904,329.7344 Q701.081,330.5469 702.6748,330.5469 Q703.6123,330.5469 704.2685,330.2969 Q704.6591,330.1406 705.081,329.7031 Q705.3466,329.4375 705.4873,329.3594 Q705.6435,329.2813 705.8466,329.2813 Q706.1748,329.2813 706.4248,329.5469 Q706.6904,329.7969 706.6904,330.1406 Q706.6904,330.4844 706.3466,330.8906 Q705.8466,331.4688 705.0498,331.7969 Q703.9716,332.25 702.6748,332.25 Q701.1591,332.25 699.956,331.625 Q698.9716,331.125 698.2841,330.0625 Q697.5966,328.9844 697.5966,327.7031 L697.5966,326.5469 Q697.5966,325.2188 698.206,324.0781 Q698.831,322.9219 699.9248,322.3125 Q701.0185,321.6875 702.2529,321.6875 Q702.9873,321.6875 703.6279,321.8594 Q704.2841,322.0156 704.831,322.375 Z " fill="#000000"/><text fill="#000000" font-family="sans-serif" font-size="14" lengthAdjust="spacing" textLength="101.1514" x="718.9688" y="332.2969">ExportController</text><line style="stroke:#181818;stroke-width:0.5;" x1="675" x2="835.1855" y1="342.5" y2="342.5"/><line style="stroke:#181818;stroke-width:0.5;" x1="675" x2="835.1855" y1="350.5" y2="350.5"/><ellipse cx="685" cy="365.3105" fill="#84BE84" rx="3" ry="3" style="stroke:#038048;stroke-width:1.0;"/><text fill="#000000" font-family="sans-serif" font-size="14" lengthAdjust="spacing" textLength="136.1855" x="694" y="369.6074">__invoke(): Response</text></g><!--class Response--><g id="elem_Response"><rect codeLine="34" fill="#F1F1F1" height="66.6211" id="Response" rx="2.5" ry="2.5" style="stroke:#181818;stroke-width:0.5;" width="95.041" x="554.5" y="484"/><ellipse cx="569.5" cy="500" fill="#ADD1B2" rx="11" ry="11" style="stroke:#181818;stroke-width:1.0;"/><path d="M572.2656,495.875 Q572.4219,495.6563 572.6094,495.5469 Q572.7969,495.4375 573.0156,495.4375 Q573.3906,495.4375 573.625,495.7031 Q573.8594,495.9531 573.8594,496.5625 L573.8594,498.0156 Q573.8594,498.625 573.625,498.8906 Q573.3906,499.1563 573.0156,499.1563 Q572.6719,499.1563 572.4688,498.9531 Q572.2656,498.7656 572.1563,498.25 Q572.1094,497.8906 571.9219,497.7031 Q571.5938,497.3281 570.9844,497.1094 Q570.375,496.8906 569.75,496.8906 Q568.9844,496.8906 568.3438,497.2188 Q567.7188,497.5469 567.2188,498.2969 Q566.7344,499.0469 566.7344,500.0781 L566.7344,501.1719 Q566.7344,502.4063 567.625,503.2344 Q568.5156,504.0469 570.1094,504.0469 Q571.0469,504.0469 571.7031,503.7969 Q572.0938,503.6406 572.5156,503.2031 Q572.7813,502.9375 572.9219,502.8594 Q573.0781,502.7813 573.2813,502.7813 Q573.6094,502.7813 573.8594,503.0469 Q574.125,503.2969 574.125,503.6406 Q574.125,503.9844 573.7813,504.3906 Q573.2813,504.9688 572.4844,505.2969 Q571.4063,505.75 570.1094,505.75 Q568.5938,505.75 567.3906,505.125 Q566.4063,504.625 565.7188,503.5625 Q565.0313,502.4844 565.0313,501.2031 L565.0313,500.0469 Q565.0313,498.7188 565.6406,497.5781 Q566.2656,496.4219 567.3594,495.8125 Q568.4531,495.1875 569.6875,495.1875 Q570.4219,495.1875 571.0625,495.3594 Q571.7188,495.5156 572.2656,495.875 Z " fill="#000000"/><text fill="#000000" font-family="sans-serif" font-size="14" lengthAdjust="spacing" textLength="63.041" x="583.5" y="505.7969">Response</text><line style="stroke:#181818;stroke-width:0.5;" x1="555.5" x2="648.541" y1="516" y2="516"/><line style="stroke:#181818;stroke-width:0.5;" x1="555.5" x2="648.541" y1="524" y2="524"/><ellipse cx="565.5" cy="538.8105" fill="#84BE84" rx="3" ry="3" style="stroke:#038048;stroke-width:1.0;"/><text fill="#000000" font-family="sans-serif" font-size="14" lengthAdjust="spacing" textLength="39.6826" x="574.5" y="543.1074">send()</text></g><!--link Application to Request--><g id="link_Application_Request"><path codeLine="38" d="M424.17,158.02 C352.61,191.66 258.65,237.62 178,283 C167.88,288.7 162.4258,291.8526 152.2258,298.1926 " fill="none" id="Application-to-Request" style="stroke:#181818;stroke-width:1.0;"/><polygon fill="#181818" points="147.13,301.36,156.8854,300.0061,151.3765,298.7205,152.6621,293.2117,147.13,301.36" style="stroke:#181818;stroke-width:1.0;"/><text fill="#000000" font-family="sans-serif" font-size="13" lengthAdjust="spacing" textLength="27.46" x="266" y="249.0283">uses</text></g><!--link Application to Handler--><g id="link_Application_Handler"><path codeLine="39" d="M438.41,204.06 C411.41,230.78 387.1937,254.7286 363.0037,278.6786 " fill="none" id="Application-to-Handler" style="stroke:#181818;stroke-width:1.0;"/><polygon fill="#181818" points="358.74,282.9,367.9499,279.4103,362.2931,279.3821,362.3213,273.7254,358.74,282.9" style="stroke:#181818;stroke-width:1.0;"/><text fill="#000000" font-family="sans-serif" font-size="13" lengthAdjust="spacing" textLength="53.479" x="405" y="249.0283">manages</text></g><!--link Application to YamlRouteLoader--><g id="link_Application_YamlRouteLoader"><path codeLine="40" d="M537,204.06 C537,241.98 537,276.82 537,304.34 " fill="none" id="Application-to-YamlRouteLoader" style="stroke:#181818;stroke-width:1.0;"/><polygon fill="#181818" points="537,310.34,541,301.34,537,305.34,533,301.34,537,310.34" style="stroke:#181818;stroke-width:1.0;"/><text fill="#000000" font-family="sans-serif" font-size="13" lengthAdjust="spacing" textLength="27.46" x="538" y="249.0283">uses</text></g><!--link Application to ExportController--><g id="link_Application_ExportController"><path codeLine="41" d="M626.93,204.06 C661.88,241.98 695.4632,278.4085 720.8332,305.9285 " fill="none" id="Application-to-ExportController" style="stroke:#181818;stroke-width:1.0;"/><polygon fill="#181818" points="724.9,310.34,721.7407,301.0116,721.511,306.6638,715.8588,306.434,724.9,310.34" style="stroke:#181818;stroke-width:1.0;"/><text fill="#000000" font-family="sans-serif" font-size="13" lengthAdjust="spacing" textLength="50.5845" x="673" y="249.0283">routes to</text></g><!--link Application to Response--><g id="link_Application_Response"><path codeLine="42" d="M649.68,136.95 C721.92,162.96 810.11,208.33 854,283 C881.48,329.75 883.58,359.56 854,405 C808.71,474.56 714.9795,500.0704 655.4595,509.9204 " fill="none" id="Application-to-Response" style="stroke:#181818;stroke-width:1.0;"/><polygon fill="#181818" points="649.54,510.9,659.0723,513.3769,654.4729,510.0837,657.7662,505.4842,649.54,510.9" style="stroke:#181818;stroke-width:1.0;"/><text fill="#000000" font-family="sans-serif" font-size="13" lengthAdjust="spacing" textLength="40.46" x="876" y="349.5283">returns</text></g><!--link Handler to Response--><g id="link_Handler_Response"><path codeLine="43" d="M400.07,402.58 C452.17,431.97 507.8344,463.3716 549.0244,486.6116 " fill="none" id="Handler-to-Response" style="stroke:#181818;stroke-width:1.0;"/><polygon fill="#181818" points="554.25,489.56,548.3772,481.6537,549.8953,487.103,544.446,488.6212,554.25,489.56" style="stroke:#181818;stroke-width:1.0;"/><text fill="#000000" font-family="sans-serif" font-size="13" lengthAdjust="spacing" textLength="91.7617" x="488" y="450.0283">creates on error</text></g><!--SRC=[TL9DRy8m3BttL-HOD77PiOT94s8V4eTfxB9J5LAlZKZjBd464zf_NvgsK0gS8Z-_Pp_RSLkDZRIo5ehgXX2Gr_nhGFZQt2U9Cj8vyGxV7XoBGoB4dR8W6PuirS-6DjAuTDR29V2RvEeLloW0VuFqiMcCLf8rOPJF-reBGeOz2tiMHW9vXWKP0oggx7dSKbPKbc25YKyBl4WiJ41Whw1fMJtG6ijpHUZOUiMTKqEoY4rwvnerBoV2BbF58EqjZwOQ-XskkOa5qmuTbLbNdWlQuRZqiMtwKLdQoOs1KPTFMPjeT1KSzzsY-pICex6SPMAoh9DskM_8nhNQDjkByrpZ3sqXRQNWmhqTd3G3qd4TOD5TSdp3-VpX-1qouHsuY_Imd4pK4cLvXJ4Tx4QXYncoxZCumNJ5L6y-a82zHPSCHYRfxWCx4OHWBTb_]--></g></svg>